# xmcd
#
# Track frame offsets:
#	150
#	23745
#	38604
#	54432
#	70692
#	85185
#	106548
#	128628
#	143406
#	161898
#	180944
#	194100
#	212979
#	234276
#
# Disc length: 3637 seconds
#
# Revision: 1
# Processed by: cddbd v1.5.2PL0 Copyright (c) Steve Scherf et al.
# Submitted via: audiograbber 1.83.01
#
DISCID=ae0e330e
DTITLE=Iron Horse - The Bluegrass Tribute to Classic Rock
DYEAR=1900
DGENRE=Buegrass
TTITLE0=Come Sail Away
TTITLE1=Born To Be Wild
TTITLE2=Carry On my Wayward Son
TTITLE3=Under Pressure
TTITLE4=I Love Rock N Roll
TTITLE5=Faithfully
TTITLE6=Rocket Man
TTITLE7=Magic Carpet Ride
TTITLE8=Renegade
TTITLE9=Your Song
TTITLE10=California Dreamin'
TTITLE11=Open Arms
TTITLE12=Smoek On The Water
TTITLE13=American Pie
EXTD=
EXTT0=
EXTT1=
EXTT2=
EXTT3=
EXTT4=
EXTT5=
EXTT6=
EXTT7=
EXTT8=
EXTT9=
EXTT10=
EXTT11=
EXTT12=
EXTT13=
PLAYORDER=
